<svg width="18" height="18" viewBox="0 0 18 18" fill="none" xmlns="http://www.w3.org/2000/svg">
<g clip-path="url(#clip0_62_18311)">
<path d="M16.4609 15.2441L13.5475 12.3393C14.4875 11.1418 14.9975 9.66301 14.9956 8.14065C14.9956 6.78487 14.5936 5.45954 13.8404 4.33225C13.0871 3.20496 12.0165 2.32635 10.764 1.80752C9.5114 1.28868 8.1331 1.15293 6.80337 1.41743C5.47365 1.68193 4.25221 2.3348 3.29353 3.29348C2.33485 4.25216 1.68198 5.47359 1.41749 6.80332C1.15299 8.13305 1.28874 9.51134 1.80757 10.7639C2.3264 12.0165 3.20502 13.0871 4.33231 13.8403C5.45959 14.5935 6.78493 14.9956 8.1407 14.9956C9.66306 14.9975 11.1418 14.4874 12.3393 13.5475L15.2441 16.4608C15.3238 16.5411 15.4186 16.6049 15.523 16.6484C15.6274 16.6919 15.7394 16.7143 15.8525 16.7143C15.9656 16.7143 16.0776 16.6919 16.182 16.6484C16.2865 16.6049 16.3812 16.5411 16.4609 16.4608C16.5412 16.3812 16.6049 16.2864 16.6484 16.182C16.6919 16.0776 16.7143 15.9656 16.7143 15.8524C16.7143 15.7393 16.6919 15.6273 16.6484 15.5229C16.6049 15.4185 16.5412 15.3237 16.4609 15.2441ZM2.9995 8.14065C2.9995 7.12382 3.30103 6.12982 3.86595 5.28435C4.43087 4.43889 5.23382 3.77993 6.17325 3.3908C7.11268 3.00167 8.14641 2.89986 9.1437 3.09824C10.141 3.29661 11.0571 3.78626 11.7761 4.50527C12.4951 5.22428 12.9847 6.14036 13.1831 7.13765C13.3815 8.13495 13.2797 9.16867 12.8906 10.1081C12.5014 11.0475 11.8425 11.8505 10.997 12.4154C10.1515 12.9803 9.15754 13.2818 8.1407 13.2818C6.77717 13.2818 5.46949 12.7402 4.50533 11.776C3.54116 10.8119 2.9995 9.50418 2.9995 8.14065Z" fill="#FFC299"/>
</g>
<defs>
<clipPath id="clip0_62_18311">
<rect width="15.4286" height="15.4286" fill="white" transform="translate(1.28577 1.28571)"/>
</clipPath>
</defs>
</svg>
