<svg width="18" height="19" viewBox="0 0 18 19" fill="none" xmlns="http://www.w3.org/2000/svg">
<path d="M16.8857 0.928589H1.1143C0.735017 0.928589 0.428589 1.23502 0.428589 1.6143V17.3857C0.428589 17.765 0.735017 18.0714 1.1143 18.0714H16.8857C17.265 18.0714 17.5714 17.765 17.5714 17.3857V1.6143C17.5714 1.23502 17.265 0.928589 16.8857 0.928589ZM14.9057 5.93216H13.5364C12.4629 5.93216 12.255 6.44216 12.255 7.19216V8.8443H14.8179L14.4836 11.4307H12.255V18.0714H9.58287V11.4329H7.34787V8.8443H9.58287V6.93716C9.58287 4.72359 10.935 3.51716 12.9107 3.51716C13.8579 3.51716 14.67 3.58787 14.9079 3.62002V5.93216H14.9057Z" fill="white"/>
</svg>
