<svg width="18" height="19" viewBox="0 0 18 19" fill="none" xmlns="http://www.w3.org/2000/svg">
<path d="M8.99771 6.64166C7.42382 6.64166 6.13941 7.9261 6.13941 9.50002C6.13941 11.0739 7.42382 12.3584 8.99771 12.3584C10.5716 12.3584 11.856 11.0739 11.856 9.50002C11.856 7.9261 10.5716 6.64166 8.99771 6.64166ZM17.5705 9.50002C17.5705 8.31636 17.5812 7.14342 17.5147 5.96191C17.4483 4.58956 17.1352 3.37159 16.1317 2.36806C15.126 1.36238 13.9102 1.05145 12.5379 0.984979C11.3543 0.918505 10.1813 0.929227 8.99986 0.929227C7.81622 0.929227 6.64331 0.918505 5.46182 0.984979C4.08949 1.05145 2.87155 1.36452 1.86803 2.36806C0.862368 3.37374 0.55145 4.58956 0.484978 5.96191C0.418505 7.14557 0.429227 8.3185 0.429227 9.50002C0.429227 10.6815 0.418505 11.8566 0.484978 13.0381C0.55145 14.4105 0.864513 15.6284 1.86803 16.632C2.87369 17.6377 4.08949 17.9486 5.46182 18.0151C6.64545 18.0815 7.81837 18.0708 8.99986 18.0708C10.1835 18.0708 11.3564 18.0815 12.5379 18.0151C13.9102 17.9486 15.1282 17.6355 16.1317 16.632C17.1373 15.6263 17.4483 14.4105 17.5147 13.0381C17.5834 11.8566 17.5705 10.6837 17.5705 9.50002ZM8.99771 13.898C6.56397 13.898 4.59982 11.9338 4.59982 9.50002C4.59982 7.06623 6.56397 5.10205 8.99771 5.10205C11.4315 5.10205 13.3956 7.06623 13.3956 9.50002C13.3956 11.9338 11.4315 13.898 8.99771 13.898ZM13.5757 5.94905C13.0075 5.94905 12.5486 5.49017 12.5486 4.92192C12.5486 4.35368 13.0075 3.8948 13.5757 3.8948C14.144 3.8948 14.6028 4.35368 14.6028 4.92192C14.603 5.05686 14.5765 5.19049 14.525 5.31519C14.4734 5.43988 14.3978 5.55318 14.3024 5.64859C14.207 5.744 14.0937 5.81965 13.969 5.87121C13.8443 5.92276 13.7107 5.94922 13.5757 5.94905Z" fill="white"/>
</svg>
