<svg width="18" height="19" viewBox="0 0 18 19" fill="none" xmlns="http://www.w3.org/2000/svg">
<path d="M16.8857 0.928589H1.1143C0.735017 0.928589 0.428589 1.23502 0.428589 1.6143V17.3857C0.428589 17.765 0.735017 18.0714 1.1143 18.0714H16.8857C17.265 18.0714 17.5714 17.765 17.5714 17.3857V1.6143C17.5714 1.23502 17.265 0.928589 16.8857 0.928589ZM13.6136 7.13645C13.62 7.23716 13.62 7.34216 13.62 7.44502C13.62 10.5907 11.2243 14.2143 6.84645 14.2143C5.49645 14.2143 4.24502 13.8222 3.19073 13.1472C3.38359 13.1686 3.56787 13.1772 3.76502 13.1772C4.8793 13.1772 5.90359 12.8 6.72002 12.1614C5.6743 12.14 4.79573 11.4543 4.49573 10.5114C4.86216 10.565 5.19216 10.565 5.5693 10.4686C5.03086 10.3592 4.54689 10.0668 4.19962 9.64098C3.85235 9.2152 3.6632 8.68232 3.6643 8.13287V8.10287C3.9793 8.28073 4.35002 8.39002 4.73787 8.40502C4.41182 8.18772 4.14443 7.89333 3.9594 7.54794C3.77437 7.20255 3.67742 6.81684 3.67716 6.42502C3.67716 5.98145 3.79287 5.57645 4.00073 5.22502C4.59838 5.96074 5.34415 6.56246 6.18958 6.99109C7.03501 7.41971 7.96118 7.66563 8.90787 7.71287C8.57145 6.09502 9.78002 4.78573 11.2329 4.78573C11.9186 4.78573 12.5357 5.07287 12.9707 5.53573C13.5086 5.43502 14.0229 5.23359 14.4814 4.96359C14.3036 5.5143 13.9307 5.9793 13.4357 6.27287C13.9157 6.22145 14.3786 6.08859 14.8072 5.90216C14.4836 6.37787 14.0786 6.80002 13.6136 7.13645Z" fill="white"/>
</svg>
